# xmcd
#
# Track frame offsets:
# 150
# 12561
# 33138
# 60049
# 71692
# 87227
# 96615
# 118663
# 139899
#
# Disc length: 2027 seconds
#
#
# Revision: 0
# Processed by: cddbd v1.4PL0 Copyright (c) Steve Scherf et al.
# Submitted via: FreeRIP 2.00 
#
DISCID=7607e909
DTITLE=The Arhoolies - Can't Win For Loosin'
DYEAR=1900
DGENRE=Acoustic
TTITLE0=Good Stuff Sweet Stuff
TTITLE1=Big Show Blues
TTITLE2=Dundee-Bradford Blues
TTITLE3=Talking Aberdeen Journals Bad Job Blues
TTITLE4=Step Up Rag
TTITLE5=The Ribald Rag
TTITLE6=The Age Old Truck
TTITLE7=The Whiskey Bar Rag
TTITLE8=Can't Win For Losin'
EXTD=
EXTT0=
EXTT1=
EXTT2=
EXTT3=
EXTT4=
EXTT5=
EXTT6=
EXTT7=
EXTT8=
PLAYORDER=
